#!OML:ASF H:\Not Pregnant\Project 1\Capture day 1\Session 1\non-pregnant.ASF
:FULLY-SPECIFIED
:DEGREES
778
root 6.01425 15.6923 35.9646 16.2088 -24.4794 -5.24901
lowerback -8.41615 0.145342 1.36632
upperback -8.98791 0.0339015 0.386477
thorax -4.64299 -0.0918172 -0.357779
lowerneck 37.9842 -16.4505 -24.9527
upperneck -29.7602 -26.6068 48.9532
head -2.61829 -18.7416 27.6938
rclavicle 2.3059e-014 1.35174e-014
rhumerus -37.3066 -9.0631 -83.0767
rradius 21.2144
rwrist 34.1509
rhand -6.84502 0.0914017
rfingers 7.12502
rthumb 19.0199 -28.9986
lclavicle 2.3059e-014 1.35174e-014
lhumerus -47.2275 2.357 86.9854
lradius 33.3466
lwrist 35.0692
lhand -17.2368 -10.906
lfingers 7.12502
lthumb 9.00688 18.8817
rfemur -27.7859 -0.898349 28.0141
rtibia 33.4683
rfoot -14.8994 -2.61704
rtoes -14.3227
lfemur -22.9645 9.68873 -20.6295
ltibia 32.5407
lfoot -21.488 -4.91618
ltoes -17.9364
779
root 5.99593 15.6882 35.9944 16.2868 -24.971 -5.35933
lowerback -8.45252 0.173302 1.41849
upperback -8.98807 0.0670264 0.428737
thorax -4.62264 -0.077528 -0.341588
lowerneck 37.8558 -16.3823 -24.9626
upperneck -29.6239 -26.5333 48.9852
head -2.58149 -18.7049 27.7161
rclavicle -2.98177e-014 1.11319e-014
rhumerus -37.2337 -8.8438 -83.2398
rradius 21.3579
rwrist 33.8642
rhand -7.00276 0.00754005
rfingers 7.12502
rthumb 18.8682 -29.0973
lclavicle -2.98177e-014 1.11319e-014
lhumerus -47.5987 2.27919 87.2422
lradius 32.9417
lwrist 34.7513
lhand -16.9469 -10.7862
lfingers 7.12502
lthumb 9.28655 18.9892
rfemur -27.6462 -0.556567 28.0518
rtibia 33.4128
rfoot -14.9989 -2.48238
rtoes -14.3412
lfemur -22.8149 9.67008 -20.5368
ltibia 32.6187
lfoot -21.5269 -4.33597
ltoes -18.5947
780
root 5.97787 15.6841 36.0246 16.3644 -25.4623 -5.46807
lowerback -8.49679 0.195815 1.47948
upperback -8.98442 0.0921232 0.468784
thorax -4.59399 -0.0677756 -0.332947
lowerneck 37.714 -16.3118 -24.9723
upperneck -29.4804 -26.4547 49.0067
head -2.54569 -18.6624 27.728
rclavicle -3.84648e-014 -1.59028e-014
rhumerus -37.1499 -8.60557 -83.4297
rradius 21.514
rwrist 33.5326
rhand -7.15884 -0.110859
rfingers 7.12502
rthumb 18.7181 -29.2303
lclavicle -3.84648e-014 -1.59028e-014
lhumerus -47.9613 2.17167 87.5155
lradius 32.5383
lwrist 34.3994
lhand -16.6446 -10.6528
lfingers 7.12502
lthumb 9.57829 19.1095
rfemur -27.5012 -0.240031 28.0893
rtibia 33.354
rfoot -15.1074 -2.33395
rtoes -14.3584
lfemur -22.6573 9.60797 -20.4481
ltibia 32.6965
lfoot -21.5674 -3.68493
ltoes -19.3713
781
root 5.95956 15.6801 36.0547 16.4517 -25.9493 -5.59535
lowerback -8.5472 0.210642 1.55508
upperback -8.97513 0.106176 0.515262
thorax -4.55616 -0.0640702 -0.326263
lowerneck 37.5514 -16.2535 -24.9606
upperneck -29.334 -26.3737 48.9977
head -2.51926 -18.6121 27.7031
rclavicle -1.37161e-014 1.98785e-015
rhumerus -37.0465 -8.3755 -83.6312
rradius 21.6698
rwrist 33.1959
rhand -7.28336 -0.201894
rfingers 7.12502
rthumb 18.5983 -29.3328
lclavicle -1.37161e-014 1.98785e-015
lhumerus -48.3131 2.05113 87.8015
lradius 32.1381
lwrist 34.0217
lhand -16.3778 -10.5059
lfingers 7.12502
lthumb 9.83565 19.2444
rfemur -27.3555 0.0749496 28.1472
rtibia 33.298
rfoot -15.2206 -2.19231
rtoes -14.3742
lfemur -22.4924 9.50047 -20.3389
ltibia 32.763
lfoot -21.5867 -2.98103
ltoes -20.2069
782
root 5.94154 15.6766 36.0857 16.5142 -26.4222 -5.68311
lowerback -8.60856 0.215507 1.61684
upperback -8.96009 0.106864 0.546895
thorax -4.50629 -0.0666387 -0.327867
lowerneck 37.3977 -16.1927 -24.9526
upperneck -29.1931 -26.2927 48.987
head -2.49571 -18.5614 27.6818
rclavicle 3.60794e-014 6.36111e-015
rhumerus -36.9482 -8.16321 -83.8339
rradius 21.8353
rwrist 32.8613
rhand -7.41344 -0.262477
rfingers 7.12502
rthumb 18.4732 -29.4053
lclavicle 3.60794e-014 6.36111e-015
lhumerus -48.6591 1.90595 88.1002
lradius 31.7453
lwrist 33.6472
lhand -16.1522 -10.3837
lfingers 7.12502
lthumb 10.0533 19.3562
rfemur -27.2018 0.319569 28.1716
rtibia 33.2521
rfoot -15.358 -2.01811
rtoes -14.3946
lfemur -22.2965 9.32825 -20.2691
ltibia 32.8046
lfoot -21.5867 -2.22351
ltoes -21.1157
783
root 5.92388 15.6735 36.117 16.5634 -26.9023 -5.73377
lowerback -8.683 0.237938 1.66818
upperback -8.95887 0.130398 0.556894
thorax -4.46355 -0.0580598 -0.345016
lowerneck 37.3353 -16.1183 -24.9791
upperneck -29.0867 -26.2273 48.9936
head -2.47939 -18.5254 27.7095
rclavicle 1.99779e-014 1.19271e-014
rhumerus -36.9014 -8.00534 -84.0014
rradius 22.0141
rwrist 32.5409
rhand -7.57472 -0.272996
rfingers 7.12502
rthumb 18.318 -29.4305
lclavicle 1.99779e-014 1.19271e-014
lhumerus -49.026 1.70499 88.4306
lradius 31.3677
lwrist 33.3754
lhand -15.9777 -10.3315
lfingers 7.12502
lthumb 10.2216 19.4001
rfemur -27.0581 0.531576 28.1587
rtibia 33.2192
rfoot -15.5087 -1.82182
rtoes -14.422
lfemur -22.0868 9.0957 -20.2414
ltibia 32.8238
lfoot -21.5527 -1.40379
ltoes -22.0741
